# xmcd
#
# Track frame offsets:
#	150
#	730
#	3175
#	4195
#	5443
#	11820
#	12961
#	18843
#	21605
#	25512
#	27201
#	30400
#	32824
#	43871
#	44983
#	50147
#	50906
#	52984
#	54172
#	59884
#	60539
#	62851
#	63242
#	64026
#	64416
#	68617
#	70405
#	75816
#	77216
#	80897
#	81957
#	82787
#	84587
#	90765
#	91425
#	93326
#	95060
#	118572
#	119151
#	121156
#	121780
#	129849
#	131043
#	135895
#	138543
#	150144
#	152504
#	159269
#	159704
#	160910
#	162630
#	164536
#	165106
#	166057
#	167994
#	172951
#	174544
#	176680
#	177610
#	179773
#	180439
#	181892
#	184395
#	186311
#	187793
#	188702
#	190487
#	192606
#	194128
#	196151
#	198365
#	201498
#	203706
#	204887
#	207335
#	208827
#	212375
#	214172
#	216886
#	219082
#	222531
#	224989
#	228257
#	231861
#	237324
#	248487
#	249970
#	255955
#	258157
#	261923
#	262667
#	264515
#	266707
#	275592
#	276741
#	279155
#	280476
#	284179
#	284636
#
# Disc length: 3896 seconds
#
# Revision: 9
# Processed by: cddbd v1.5.2PL0 Copyright (c) Steve Scherf et al.
# Submitted via: audiograbber 1.83.01
#
DISCID=b20f3663
DTITLE=Johnny Cash - American Iv: The Man Comes Around (Interview Cd)
DYEAR=2002
DGENRE=Country
TTITLE0=01
TTITLE1=02
TTITLE2=03
TTITLE3=04
TTITLE4=05
TTITLE5=06
TTITLE6=07
TTITLE7=08
TTITLE8=09
TTITLE9=10
TTITLE10=11
TTITLE11=12
TTITLE12=13
TTITLE13=14
TTITLE14=15
TTITLE15=16
TTITLE16=17
TTITLE17=18
TTITLE18=19
TTITLE19=20
TTITLE20=21
TTITLE21=22
TTITLE22=23
TTITLE23=24
TTITLE24=25
TTITLE25=26
TTITLE26=27
TTITLE27=28
TTITLE28=29
TTITLE29=30
TTITLE30=31
TTITLE31=32
TTITLE32=33
TTITLE33=34
TTITLE34=35
TTITLE35=36
TTITLE36=37
TTITLE37=38
TTITLE38=39
TTITLE39=40
TTITLE40=41
TTITLE41=42
TTITLE42=43
TTITLE43=44
TTITLE44=45
TTITLE45=46
TTITLE46=47
TTITLE47=48
TTITLE48=49
TTITLE49=50
TTITLE50=51
TTITLE51=52
TTITLE52=53
TTITLE53=54
TTITLE54=55
TTITLE55=56
TTITLE56=57
TTITLE57=58
TTITLE58=59
TTITLE59=60
TTITLE60=61
TTITLE61=62
TTITLE62=63
TTITLE63=64
TTITLE64=65
TTITLE65=66
TTITLE66=67
TTITLE67=68
TTITLE68=69
TTITLE69=70
TTITLE70=71
TTITLE71=72
TTITLE72=73
TTITLE73=74
TTITLE74=75
TTITLE75=76
TTITLE76=77
TTITLE77=78
TTITLE78=79
TTITLE79=80
TTITLE80=81
TTITLE81=82
TTITLE82=83
TTITLE83=84
TTITLE84=85
TTITLE85=86
TTITLE86=87
TTITLE87=88
TTITLE88=89
TTITLE89=90
TTITLE90=91
TTITLE91=92
TTITLE92=93
TTITLE93=94
TTITLE94=95
TTITLE95=96
TTITLE96=97
TTITLE97=98
TTITLE98=99
EXTD=(c)2002 American Recordings/Lost Highway Records/Universal\nupc 0088170368
EXTD=23 (extended double-c
EXTT0=Songwriter: John R. Cash - Song of Cash Music
EXTT1=Songwriter: Trent Reznor - Leaving Hope Music/TVT Music Inc
EXTT2=Songwriter: John R. Cash - House of Cash Inc
EXTT3=Songwriter: Paul Simon - Paul Simon Music
EXTT4=Songwriter: Sting - EMI Blackwood Music
EXTT5=Songwriter: Ewan MacColl - David Platz Music
EXTT6=Songwriter: Martin L. Gore - EMI Blackwood Music
EXTT7=Songwriter: John Lennon/Paul McCartney - Sony ATV Tuners LLC
EXTT8=Songwriter: Arrangement: John R. Cash - Song of Cash Music
EXTT9=Songwriter: Arrangement by John R. Cash - Song of Cash Music
EXTT10=Songwriter: Glenn Frey/Don Henley - Cass Country Music
EXTT11=Songwriter: Hank Williams - Acuff Rose Music
EXTT12=Songwriter: John R. Cash - Song of Cash Music
EXTT13=Songwriter: Arranged and adapted by John R. Cash - Song of Cash Music
EXTT14=Songwriter: Ross Parker/Hugh Chalres - Music Sales Corporation
EXTT15=
EXTT16=
EXTT17=
EXTT18=
EXTT19=
EXTT20=
EXTT21=
EXTT22=
EXTT23=
EXTT24=
EXTT25=
EXTT26=
EXTT27=
EXTT28=
EXTT29=
EXTT30=
EXTT31=
EXTT32=
EXTT33=
EXTT34=
EXTT35=
EXTT36=
EXTT37=
EXTT38=
EXTT39=
EXTT40=
EXTT41=
EXTT42=
EXTT43=
EXTT44=
EXTT45=
EXTT46=
EXTT47=
EXTT48=
EXTT49=
EXTT50=
EXTT51=
EXTT52=
EXTT53=
EXTT54=
EXTT55=
EXTT56=
EXTT57=
EXTT58=
EXTT59=
EXTT60=
EXTT61=
EXTT62=
EXTT63=
EXTT64=
EXTT65=
EXTT66=
EXTT67=
EXTT68=
EXTT69=
EXTT70=
EXTT71=
EXTT72=
EXTT73=
EXTT74=
EXTT75=
EXTT76=
EXTT77=
EXTT78=
EXTT79=
EXTT80=
EXTT81=
EXTT82=
EXTT83=
EXTT84=
EXTT85=
EXTT86=
EXTT87=
EXTT88=
EXTT89=
EXTT90=
EXTT91=
EXTT92=
EXTT93=
EXTT94=
EXTT95=
EXTT96=
EXTT97=
EXTT98=
PLAYORDER=
